<?xml version="1.0" encoding="UTF-8"?>
<svg width="21px" height="21px" viewBox="0 0 21 21" version="1.1" xmlns="http://www.w3.org/2000/svg"
     xmlns:xlink="http://www.w3.org/1999/xlink">
    <!-- Generator: Sketch 64 (93537) - https://sketch.com -->

    <!--<g id="Principal" stroke="none" stroke-width="1" fill="none" fill-rule="evenodd">-->
    <g id="web-principal" transform="translate(-1253.000000, -142.000000)" fill-rule="nonzero">
        <g id="Botão-Copy" transform="translate(1236.000000, 125.000000)">
            <g id="Group-3-Copy">
                <g id="download" transform="translate(17.000000, 17.000000)">
                    <g id="Group-5" transform="translate(0.277778, 0.277778)">
                        <path d="M18.4722222,11.6666667 C18.9644204,11.6666667 19.371192,12.0324217 19.4355692,12.5069641 L19.4444444,12.6388889 L19.4444444,16.5277778 C19.4444444,18.0714904 18.2451609,19.3350953 16.7274707,19.4377156 L16.5277778,19.4444444 L2.91666667,19.4444444 C1.37295408,19.4444444 0.109349183,18.2451609 0.00672883107,16.7274707 L4.01456646e-13,16.5277778 L4.01456646e-13,12.6388889 C4.01456646e-13,12.1019454 0.435278715,11.6666667 0.972222222,11.6666667 C1.46442044,11.6666667 1.87119199,12.0324217 1.9355692,12.5069641 L1.94444444,12.6388889 L1.94444444,16.5277778 C1.94444444,17.019976 2.31019948,17.4267475 2.78474187,17.4911248 L2.91666667,17.5 L16.5277778,17.5 C17.019976,17.5 17.4267475,17.134245 17.4911248,16.6597026 L17.5,16.5277778 L17.5,12.6388889 C17.5,12.1019454 17.9352787,11.6666667 18.4722222,11.6666667 Z"
                              id="Path"></path>
                        <path d="M4.17364618,7.09031285 C4.51880654,6.74515249 5.05892613,6.71377428 5.43953362,6.99617821 L5.54857604,7.09031285 L9.72222222,11.2634722 L13.8958684,7.09031285 C14.2410288,6.74515249 14.7811484,6.71377428 15.1617558,6.99617821 L15.2707983,7.09031285 C15.6159586,7.43547321 15.6473368,7.9755928 15.3649329,8.35620029 L15.2707983,8.4652427 L10.4096871,13.3263538 C10.0645268,13.6715142 9.5244072,13.7028924 9.14379971,13.4204885 L9.0347573,13.3263538 L4.17364618,8.4652427 C3.79396979,8.08556631 3.79396979,7.46998925 4.17364618,7.09031285 Z"
                              id="Path"></path>
                        <path d="M9.72222222,1.0125234e-13 C10.2144204,1.0125234e-13 10.621192,0.365755032 10.6855692,0.840297426 L10.6944444,0.972222222 L10.6944444,12.6388889 C10.6944444,13.1758324 10.2591657,13.6111111 9.72222222,13.6111111 C9.23002401,13.6111111 8.82325246,13.2453561 8.75887524,12.7708137 L8.75,12.6388889 L8.75,0.972222222 C8.75,0.435278715 9.18527872,1.0125234e-13 9.72222222,1.0125234e-13 Z"
                              id="Path"></path>
                    </g>
                </g>
            </g>
        </g>
    </g>
    <!--</g>-->
</svg>
